<svg xmlns="http://www.w3.org/2000/svg" viewBox="0 0 1200 760"><defs><linearGradient id="g" x1="0" y1="0" x2="1" y2="1"><stop stop-color="#ffc52d"/><stop offset="1" stop-color="#35d7ff"/></linearGradient><filter id="b"><feGaussianBlur stdDeviation="50"/></filter></defs><rect width="1200" height="760" fill="#0a0e13"/><circle cx="860" cy="220" r="230" fill="#ffc52d" opacity=".14" filter="url(#b)"/><circle cx="300" cy="620" r="260" fill="#35d7ff" opacity=".10" filter="url(#b)"/>
<path d="M0 590 C180 510 240 620 390 500 S630 280 760 380 S960 520 1240 250" fill="none" stroke="#33414a" stroke-width="5"/><path d="M0 590 C180 510 240 620 390 500 S630 280 760 380 S960 520 1240 250" fill="none" stroke="url(#g)" stroke-width="4" stroke-dasharray="14 11"/>
<g fill="#ffc52d" stroke="#17130a" stroke-width="6"><path d="M420 455h260l-35-80h-190z"/><rect x="450" y="365" width="200" height="95" rx="18"/><circle cx="480" cy="470" r="30" fill="#111"/><circle cx="640" cy="470" r="30" fill="#111"/><rect x="485" y="390" width="52" height="34" rx="8" fill="#273d46"/><rect x="555" y="390" width="70" height="34" rx="8" fill="#273d46"/></g>
<g fill="#fff" opacity=".9"><rect x="830" y="130" width="230" height="13" rx="6"/><rect x="830" y="165" width="160" height="9" rx="4"/><rect x="830" y="215" width="180" height="9" rx="4"/><rect x="830" y="255" width="130" height="9" rx="4"/></g><g stroke="#ffc52d" stroke-width="4"><path d="M830 340h250M830 390h250M830 440h250"/><path d="M850 420l45-25 40 12 55-50 55 18" fill="none"/></g>
<text x="78" y="115" fill="#fff" font-family="Arial" font-size="48" font-weight="700">AUTOMATIDATA</text><text x="80" y="155" fill="#ffc52d" font-family="monospace" font-size="16">NYC TAXI • FARE • TIPPING</text></svg>
